<?xml version="1.0" ?><!DOCTYPE svg  PUBLIC '-//W3C//DTD SVG 1.0//EN'  'http://www.w3.org/TR/2001/REC-SVG-20010904/DTD/svg10.dtd'><svg enable-background="new 0 0 450 450" height="450px" id="Layer_1" version="1.0" viewBox="0 0 450 450" width="450px" xml:space="preserve" xmlns="http://www.w3.org/2000/svg" xmlns:xlink="http://www.w3.org/1999/xlink"><g><g><path d="M295.924,358.01c-7.06-1.372-14.057-0.916-20.499,1.03c-1.25-7.348-4.064-14.554-8.548-21.113    c-16.562-24.241-49.569-30.513-73.725-14.01c-12.369,8.451-20.016,21.236-22.314,34.955c-1.448-0.284-2.929-0.495-4.432-0.632    c-23.677-2.142-44.6,15.253-46.733,38.852c-1.338,14.773,5.01,28.479,15.754,37.186c-6.808-8.373-10.48-19.292-9.435-30.871    c2.136-23.598,23.059-40.991,46.735-38.851c1.187,0.108,2.358,0.263,3.514,0.465c3.455-9.913,9.986-18.839,19.306-25.205    c23.233-15.873,54.978-9.845,70.904,13.465c2.197,3.217,3.976,6.594,5.353,10.067c5.038-0.975,10.344-1.021,15.689,0.016    c22.422,4.357,37.061,26.126,32.692,48.626c-2.814,14.488-12.824,25.745-25.584,30.761c17.228-2.829,31.701-16.112,35.234-34.307    C334.369,385.107,319.187,362.528,295.924,358.01z" fill="#333333"/><path d="M160.964,394.25c7.132-18.835,28.182-28.323,47.017-21.192c2.375,0.9,4.599,2.02,6.662,3.328    c-3.365-4.07-7.784-7.344-13.061-9.344c-16.342-6.188-34.659,2.179-40.909,18.687c-2.043,5.396-2.533,10.991-1.713,16.3    C159.332,399.422,159.993,396.816,160.964,394.25z" fill="#333333"/><path d="M242.96,373.847c17.861-9.309,39.884-2.376,49.191,15.483c1.174,2.252,2.088,4.567,2.757,6.919    c0.199-5.278-0.92-10.664-3.526-15.668c-8.078-15.497-27.313-21.444-42.97-13.284c-5.114,2.665-9.206,6.514-12.126,11.021    C238.299,376.619,240.527,375.115,242.96,373.847z" fill="#333333"/><path d="M155.652,352.399c0,0,8.506-1.169,10.546,0.093l3.976-12.994l-34.49-37.796L155.652,352.399z" fill="#333333"/><path d="M274.122,337.41c0,0,5.246,8.66,5.658,16.021l28.586-46.955L274.122,337.41z" fill="#333333"/></g><path d="M223.413,7.25c-50.542,0-91.513,40.972-91.513,91.513c0,32.201,16.646,60.498,41.79,76.808v14.176   c0,8.473,6.866,10.05,15.339,10.05c8.472,0,15.342-1.577,15.342-10.05v-13.577c1.223,0.26,2.46,0.483,3.7,0.692v17.118   c0,8.471,6.87,10.05,15.342,10.05c8.473,0,15.34-1.579,15.34-10.05v-17.118c1.241-0.209,2.479-0.433,3.703-0.692v13.577   c0,8.473,6.869,10.05,15.341,10.05c8.473,0,15.342-1.577,15.342-10.05v-14.176c25.142-16.31,41.787-44.607,41.787-76.808   C314.926,48.222,273.954,7.25,223.413,7.25z M181.359,126.797c-16.662,2.646-30.417-5.374-30.417-19.836   c0-14.461,13.989-26.91,30.417-30.416c19.836-4.231,30.417,6.434,30.417,20.895C211.776,111.901,197.95,124.165,181.359,126.797z    M234.576,136.007h-23.912c-0.49-0.489-0.49-1.282,0-1.772l11.071-16.08c0.486-0.489,1.279-0.489,1.771,0l11.071,16.08   C235.064,134.726,235.064,135.519,234.576,136.007z M263.88,126.797c-16.591-2.632-30.417-14.896-30.417-29.358   c0-14.461,10.581-25.126,30.417-20.895c16.428,3.506,30.416,15.955,30.416,30.416C294.296,121.423,280.543,129.443,263.88,126.797z   " fill="#333333"/><path d="M243.513,245.819c0,0-6.347,4.231-19.834,4.231c-13.488,0-20.366-4.231-20.366-4.231v-38.088   c0,0,9.788,2.91,20.102,2.91c10.843,0,20.099-2.91,20.099-2.91V245.819z" fill="#333333"/><path d="M243.513,317.759c0,0-6.347,4.233-19.834,4.233c-13.488,0-20.366-4.233-20.366-4.233v-38.085   c0,0,9.788,0,20.102,0c10.843,0,20.099,0,20.099,0V317.759z" fill="#333333"/><path d="M254.095,236.002l-0.529,0.323v4.001c25.151,2.032,42.316,6.098,42.316,10.782   c0,6.72-28.939,12.163-72.469,12.163c-43.53,0-72.47-5.443-72.47-12.163c0-4.651,16.929-8.69,41.789-10.735v-4.371   c-46.214,2.352-80.023,9.882-80.023,18.807c0,10.814,49.562,19.573,110.704,19.573c61.14,0,110.707-8.759,110.707-19.573   C334.119,245.884,300.31,238.353,254.095,236.002z" fill="#333333"/><path d="M336.262,387.761c0,0,4.231,16.223-0.705,24.687l69.824-29.625L336.262,387.761z" fill="#333333"/><path d="M115.15,381.412c0,0-5.291,6.702-2.116,21.866l-68.415-27.86L115.15,381.412z" fill="#333333"/></g></svg>